<?xml version="1.0" standalone="no"?>
<!DOCTYPE svg PUBLIC "-//W3C//DTD SVG 20010904//EN"
 "http://www.w3.org/TR/2001/REC-SVG-20010904/DTD/svg10.dtd">
<svg version="1.0" xmlns="http://www.w3.org/2000/svg"
 width="400.000000pt" height="400.000000pt" viewBox="0 0 400.000000 400.000000"
 preserveAspectRatio="xMidYMid meet">
<metadata>
Created by potrace 1.14, written by Peter Selinger 2001-2017
</metadata>
<g transform="translate(0.000000,400.000000) scale(0.100000,-0.100000)"
fill="#000000" stroke="none">
<path d="M0 2000 l0 -2000 2000 0 2000 0 0 2000 0 2000 -2000 0 -2000 0 0
-2000z m976 747 c107 -36 213 -106 300 -199 121 -130 172 -252 181 -433 5 -92
2 -124 -15 -193 -64 -252 -242 -435 -501 -514 -59 -19 -100 -21 -368 -25
l-303 -5 0 702 0 701 313 -3 c309 -4 313 -4 393 -31z m2300 6 c233 -78 415
-265 479 -493 27 -96 25 -261 -4 -365 -64 -229 -252 -414 -493 -486 -66 -20
-101 -23 -370 -26 l-298 -5 0 702 0 702 313 -5 c280 -3 318 -6 373 -24z m-906
-1483 l0 -110 -430 0 -430 0 0 110 0 110 430 0 430 0 0 -110z"/>
<path d="M582 2083 l3 -408 95 -3 c211 -7 342 62 422 225 28 57 33 79 36 159
7 155 -45 276 -155 360 -75 58 -137 74 -278 74 l-125 0 2 -407z"/>
<path d="M2900 2079 l0 -411 128 4 c156 6 216 26 296 99 194 177 174 514 -38
655 -78 51 -131 64 -268 64 l-118 0 0 -411z"/>
</g>
</svg>
